Coordinates
version=1
nRows=24
nColumns=24
inDegrees=yes

Units are S.I. units (second, meters, Newtons, ...)
Angles are in degrees.

endheader
time	pelvis_tilt	pelvis_list	pelvis_rotation	pelvis_tx	pelvis_ty	pelvis_tz	hip_flexion_r	hip_adduction_r	hip_rotation_r	knee_angle_r	ankle_angle_r	subtalar_angle_r	mtp_angle_r	hip_flexion_l	hip_adduction_l	hip_rotation_l	knee_angle_l	ankle_angle_l	subtalar_angle_l	mtp_angle_l	lumbar_extension	lumbar_bending	lumbar_rotation
      0.45900000	     -2.22885662	      4.08719601	     -1.03515557	     -0.83262205	      1.04491300	      0.31186368	     27.48217924	     -2.37535346	     -2.66154311	     -3.73471560	      7.80582605	      1.26173085	      6.28392614	    -14.35623540	      5.68608674	      3.25101218	     -4.25672615	     18.59155716	      5.64074034	     -2.07702876	    -10.12865043	     -2.38738759	     -4.42413746
      0.46316667	     -2.15811062	      4.05354308	     -0.98065985	     -0.82644172	      1.04400127	      0.31200679	     27.48110387	     -2.31994055	     -2.44804947	     -4.07309097	      7.71228490	      0.99464156	      6.27732557	    -14.56100584	      5.62939530	      3.23591441	     -4.75934882	     18.84215047	      5.84371102	     -2.06900281	    -10.16625762	     -2.23137508	     -4.47287383
      0.46733333	     -2.12085554	      4.01569147	     -0.92533746	     -0.82019992	      1.04306201	      0.31215994	     27.51591058	     -2.25842069	     -2.22927904	     -4.48612224	      7.58559736	      0.67953908	      6.28021401	    -14.71037052	      5.56589041	      3.18304100	     -5.31686664	     19.10031503	      6.10211439	     -2.03164179	    -10.14824556	     -2.07092524	     -4.48823257
      0.47150000	     -2.07527845	      3.95728764	     -0.86297020	     -0.81389800	      1.04219786	      0.31229498	     27.52961584	     -2.18036415	     -2.02574964	     -4.94819543	      7.41574431	      0.33129706	      6.29264859	    -14.86164335	      5.47777411	      3.11845754	     -5.88759419	     19.33152528	      6.37147544	     -1.96872398	    -10.14063256	     -1.87779410	     -4.51657960
      0.47566667	     -2.01273417	      3.89388000	     -0.78765016	     -0.80759582	      1.04142412	      0.31241452	     27.51726643	     -2.10407590	     -1.83564667	     -5.45683215	      7.21582685	     -0.03442959	      6.31160786	    -15.01769058	      5.38073952	      3.08735583	     -6.48890572	     19.54548063	      6.62368106	     -1.88240773	    -10.15733286	     -1.67071065	     -4.53947130
      0.47983333	     -1.96356836	      3.81622237	     -0.72760399	     -0.80120670	      1.04067167	      0.31257405	     27.51241262	     -2.00362933	     -1.63865594	     -6.00801282	      6.94695325	     -0.47833440	      6.34380378	    -15.13688630	      5.26781931	      2.96064106	     -7.13837281	     19.71210649	      6.92561527	     -1.75368301	    -10.13817887	     -1.45622799	     -4.56270329
      0.48400000	     -1.91830813	      3.72972589	     -0.65428238	     -0.79478223	      1.03997688	      0.31271431	     27.50382046	     -1.90098374	     -1.47536911	     -6.59686446	      6.63369680	     -0.91947277	      6.38184878	    -15.24449554	      5.14186774	      2.86916209	     -7.81017602	     19.86895510	      7.21960871	     -1.59804663	    -10.11253896	     -1.22409147	     -4.58694787
      0.48816667	     -1.85584346	      3.64197593	     -0.57379180	     -0.78834476	      1.03936128	      0.31284824	     27.47898064	     -1.80354652	     -1.36226133	     -7.23414181	      6.32538452	     -1.29603916	      6.53470844	    -15.32775351	      5.00477609	      2.67302210	     -8.55841542	     20.01085682	      7.66115724	     -1.04649957	    -10.12062825	     -1.00267269	     -4.53261457
      0.49233333	     -1.82520882	      3.54253506	     -0.49013199	     -0.78183398	      1.03877856	      0.31298715	     27.46112289	     -1.69008720	     -1.20396168	     -7.85744566	      5.89681872	     -1.82036724	      6.56494653	    -15.40172345	      4.86405168	      2.64376179	     -9.26321629	     20.05964925	      7.81285892	     -0.87763953	    -10.05663151	     -0.73422291	     -4.64488789
      0.49650000	     -1.78372573	      3.43577702	     -0.40382105	     -0.77530947	      1.03826253	      0.31314451	     27.42769145	     -1.57087028	     -1.06937169	     -8.50351730	      5.45619866	     -2.31493570	      6.61043507	    -15.43670989	      4.70305868	      2.48214654	    -10.07616664	     20.12560717	      8.16847697	     -0.62515688	    -10.02394172	     -0.47587435	     -4.64907682
      0.50066667	     -1.73979054	      3.32411184	     -0.31030575	     -0.76875220	      1.03782343	      0.31329089	     27.39144339	     -1.45377296	     -0.99653245	     -9.18074368	      4.99794271	     -2.76621310	      6.65350603	    -15.45876422	      4.53375069	      2.32923112	    -10.91094553	     20.14691670	      8.50319267	     -0.33848896	     -9.98135006	     -0.20488443	     -4.68275858
      0.50483333	     -1.72669875	      3.21732355	     -0.21085333	     -0.76215852	      1.03740816	      0.31344900	     27.38047317	     -1.34278886	     -0.92140973	     -9.86576393	      4.51286274	     -3.21709696	      6.69880393	    -15.41946750	      4.36303702	      2.15513642	    -11.79949877	     20.11843505	      8.86015586	      0.02105556	     -9.90496485	      0.05243677	     -4.69809935
      0.50900000	     -1.69850012	      3.09859184	     -0.11047885	     -0.75554712	      1.03708673	      0.31361266	     27.35271485	     -1.22424285	     -0.89452608	    -10.57056498	      4.02948374	     -3.63000331	      6.73303164	    -15.37311571	      4.17617760	      1.97181729	    -12.73061640	     20.05001391	      9.19790204	      0.40069447	     -9.82911105	      0.33364875	     -4.72269408
      0.51316667	     -1.67243608	      2.99900200	     -0.00622031	     -0.74894555	      1.03681222	      0.31377411	     27.34608724	     -1.13541596	     -0.94159157	    -11.32886794	      3.59541702	     -3.87657321	      7.06972087	    -15.29020228	      4.00271250	      1.76333771	    -13.71531955	     19.86156345	      9.54504700	      4.33122144	     -9.77413117	      0.56307612	     -4.64829375
      0.51733333	     -1.65115732	      2.87552888	      0.10843378	     -0.74229644	      1.03665156	      0.31394962	     27.30182404	     -1.01786964	     -0.91226548	    -12.01861234	      3.08389520	     -4.33117182	      7.04707143	    -15.19298732	      3.80394631	      1.62393742	    -14.71660019	     19.65546350	      9.78739471	      4.41520864	     -9.69141971	      0.86035966	     -4.75722456
      0.52150000	     -1.64830728	      2.75700425	      0.22154721	     -0.73564140	      1.03651058	      0.31414748	     27.29217078	     -0.91035766	     -0.93824614	    -12.75164088	      2.64225105	     -4.64684245	      7.01904077	    -15.02434970	      3.59676137	      1.39013876	    -15.81530848	     19.43242368	     10.16945416	      4.57221394	     -9.58840274	      1.13025418	     -4.76026521
      0.52566667	     -1.61352747	      2.64324568	      0.32638995	     -0.72901645	      1.03648388	      0.31438702	     27.25416793	     -0.80584818	     -0.97648918	    -13.50350248	      2.22712761	     -4.93979950	      6.97451109	    -14.85984507	      3.38592392	      1.12167025	    -16.95697920	     19.14095089	     10.60523132	      4.86011471	     -9.53849231	      1.38937878	     -4.77689991
      0.52983333	     -1.62193237	      2.52093795	      0.44162736	     -0.72235510	      1.03646261	      0.31461599	     27.25203314	     -0.69952049	     -1.03145053	    -14.24804226	      1.87271146	     -5.17717152	      6.92571542	    -14.61363781	      3.16057594	      0.86053370	    -18.16208135	     18.80506332	     10.96014413	      5.16825956	     -9.41913254	      1.66385067	     -4.78913764
      0.53400000	     -1.59801665	      2.40019000	      0.55550863	     -0.71571816	      1.03658883	      0.31488509	     27.19988078	     -0.59165375	     -1.07168063	    -14.96516622	      1.52784152	     -5.43002074	      6.35058628	    -14.37771171	      2.92906673	      0.61145641	    -19.38461075	     18.27390370	     11.25390004	      9.13625852	     -9.35131609	      1.91379212	     -4.71524162
      0.53816667	     -1.59933190	      2.28436293	      0.67854954	     -0.70907787	      1.03672256	      0.31514007	     27.18624556	     -0.50256436	     -1.18715674	    -15.71791812	      1.30440125	     -5.51951183	      6.33824784	    -14.07270515	      2.69417412	      0.35295279	    -20.68752124	     17.78862106	     11.59266078	      9.21432550	     -9.23810677	      2.17638680	     -4.78994515
      0.54233333	     -1.57876016	      2.16500770	      0.79432244	     -0.70246891	      1.03696003	      0.31544295	     27.13378438	     -0.40242753	     -1.27341132	    -16.43961206	      1.09440824	     -5.65108226	      6.31257913	    -13.75063751	      2.44201251	      0.05275566	    -22.04314435	     17.22854681	     11.96624358	      9.35275575	     -9.15904104	      2.43000635	     -4.78744944
      0.54650000	     -1.55768354	      2.04306931	      0.89858947	     -0.69588255	      1.03726822	      0.31581042	     27.06583508	     -0.28586665	     -1.30668265	    -17.13344794	      0.89426965	     -5.87365994	      5.82192039	    -13.40324713	      2.17917898	     -0.25694198	    -23.42431100	     16.53131057	     12.30544559	     12.17979817	     -9.09951398	      2.67418304	     -4.74519390
      0.55066667	     -1.54161588	      1.92093441	      1.01150557	     -0.68930161	      1.03762252	      0.31614311	     27.00165444	     -0.18737892	     -1.43554039	    -17.83187211	      0.85112404	     -5.84028592	      5.81266463	    -13.01219545	      1.90929800	     -0.55363810	    -24.87025376	     15.82831882	     12.60770648	     12.24291107	     -9.00940393	      2.93166027	     -4.75686825
      0.55483333	     -1.52800904	      1.80044304	      1.11792600	     -0.68275703	      1.03803290	      0.31652991	     26.92222194	     -0.07895447	     -1.52274961	    -18.49291101	      0.80618023	     -5.90211847	      5.78894449	    -12.58403727	      1.62935078	     -0.86685884	    -26.35506684	     15.03733805	     12.92517507	     12.36053673	     -8.92901827	      3.17542951	     -4.74277190
